<svg xmlns="http://www.w3.org/2000/svg" viewBox="0 0 512 512">
  <defs>
    <filter id="s" x="-20%" y="-20%" width="140%" height="140%"><feDropShadow dx="0" dy="12" stdDeviation="14" flood-color="#5b3626" flood-opacity="0.18"/></filter>
    <linearGradient id="g1" x1="0" y1="0" x2="1" y2="1"><stop offset="0" stop-color="#fff5df"/><stop offset="1" stop-color="#f2bd85"/></linearGradient>
    <linearGradient id="pink" x1="0" y1="0" x2="1" y2="1"><stop offset="0" stop-color="#fff0f7"/><stop offset="1" stop-color="#f5a8c8"/></linearGradient>
    <linearGradient id="purple" x1="0" y1="0" x2="1" y2="1"><stop offset="0" stop-color="#f2e7ff"/><stop offset="1" stop-color="#b9a2ff"/></linearGradient>
    <linearGradient id="gold" x1="0" y1="0" x2="1" y2="1"><stop offset="0" stop-color="#fff1a8"/><stop offset="1" stop-color="#d99a18"/></linearGradient>
    <linearGradient id="night" x1="0" y1="0" x2="1" y2="1"><stop offset="0" stop-color="#5561ff"/><stop offset="1" stop-color="#24163b"/></linearGradient>
  </defs>
    <g filter="url(#s)" stroke="#4a2d21" stroke-width="16" stroke-linejoin="round">
    <path d="M124 188 256 112l132 76v150l-132 76-132-76Z" fill="url(#pink)"/>
    <path d="M124 188 256 264v150l-132-76Z" fill="url(#pink)" opacity="0.86"/>
    <path d="M388 188 256 264v150l132-76Z" fill="#ef96bb" opacity="0.9"/>
    <path d="M124 188 256 112l132 76-132 76Z" fill="#ffe3ef" opacity="0.94"/>
  </g>
  <path d="M173 197 256 149l83 48-83 48Z" fill="#fff" opacity="0.34"/>
</svg>
