<svg xmlns="http://www.w3.org/2000/svg" viewBox="0 0 512 512">
  <defs>
    <filter id="s" x="-20%" y="-20%" width="140%" height="140%"><feDropShadow dx="0" dy="12" stdDeviation="14" flood-color="#5b3626" flood-opacity="0.18"/></filter>
    <linearGradient id="g1" x1="0" y1="0" x2="1" y2="1"><stop offset="0" stop-color="#fff5df"/><stop offset="1" stop-color="#f2bd85"/></linearGradient>
    <linearGradient id="pink" x1="0" y1="0" x2="1" y2="1"><stop offset="0" stop-color="#fff0f7"/><stop offset="1" stop-color="#f5a8c8"/></linearGradient>
    <linearGradient id="purple" x1="0" y1="0" x2="1" y2="1"><stop offset="0" stop-color="#f2e7ff"/><stop offset="1" stop-color="#b9a2ff"/></linearGradient>
    <linearGradient id="gold" x1="0" y1="0" x2="1" y2="1"><stop offset="0" stop-color="#fff1a8"/><stop offset="1" stop-color="#d99a18"/></linearGradient>
    <linearGradient id="night" x1="0" y1="0" x2="1" y2="1"><stop offset="0" stop-color="#5561ff"/><stop offset="1" stop-color="#24163b"/></linearGradient>
  </defs>
  <g filter="url(#s)"><path d="M210 167c-42-78-28-130 3-139 31 8 45 62 24 139Z" fill="#fff" stroke="#4a2d21" stroke-width="11"/><path d="M297 167c22-77 70-113 99-99 18 28-8 79-72 123Z" fill="#fff" stroke="#4a2d21" stroke-width="11"/><path d="M218 74c10 21 14 48 7 78M344 103c-17 16-31 36-42 61" stroke="#ff9fc4" stroke-width="12" stroke-linecap="round"/></g>
</svg>
