<svg xmlns="http://www.w3.org/2000/svg" width="1200" height="675" viewBox="0 0 1200 675"><defs><linearGradient id="bg" x2="1" y2="1"><stop stop-color="#7c6024"/><stop offset="1" stop-color="#fff1b1"/></linearGradient></defs><rect width="1200" height="675" rx="32" fill="url(#bg)"/><rect x="14" y="14" width="1172" height="647" rx="24" fill="none" stroke="#f5dfaf" stroke-width="5"/><circle cx="25" cy="20" r="2" fill="#fff8d4" opacity=".3"/><circle cx="222" cy="133" r="3" fill="#fff8d4" opacity=".3"/><circle cx="419" cy="246" r="4" fill="#fff8d4" opacity=".3"/><circle cx="616" cy="359" r="5" fill="#fff8d4" opacity=".3"/><circle cx="813" cy="472" r="2" fill="#fff8d4" opacity=".3"/><circle cx="1010" cy="585" r="3" fill="#fff8d4" opacity=".3"/><circle cx="57" cy="73" r="4" fill="#fff8d4" opacity=".3"/><circle cx="254" cy="186" r="5" fill="#fff8d4" opacity=".3"/><circle cx="451" cy="299" r="2" fill="#fff8d4" opacity=".3"/><circle cx="648" cy="412" r="3" fill="#fff8d4" opacity=".3"/><circle cx="845" cy="525" r="4" fill="#fff8d4" opacity=".3"/><circle cx="1042" cy="638" r="5" fill="#fff8d4" opacity=".3"/><circle cx="89" cy="126" r="2" fill="#fff8d4" opacity=".3"/><circle cx="286" cy="239" r="3" fill="#fff8d4" opacity=".3"/><circle cx="483" cy="352" r="4" fill="#fff8d4" opacity=".3"/><circle cx="680" cy="465" r="5" fill="#fff8d4" opacity=".3"/><circle cx="877" cy="578" r="2" fill="#fff8d4" opacity=".3"/><circle cx="1074" cy="66" r="3" fill="#fff8d4" opacity=".3"/><circle cx="121" cy="179" r="4" fill="#fff8d4" opacity=".3"/><circle cx="318" cy="292" r="5" fill="#fff8d4" opacity=".3"/><circle cx="515" cy="405" r="2" fill="#fff8d4" opacity=".3"/><circle cx="712" cy="518" r="3" fill="#fff8d4" opacity=".3"/><g opacity=".8"><rect x="35" y="435" width="165" height="174" rx="16" fill="#ad8b49" stroke="#f2d891" stroke-width="8"/><circle cx="115" cy="520" r="48" fill="#725b2b" stroke="#dfc783" stroke-width="7"/><path d="M115 480v80M75 520h80M88 493l55 55M143 493l-55 55" stroke="#e6d397" stroke-width="7"/></g><g transform="translate(1200 0) scale(-1 1)" opacity=".6"><rect x="35" y="435" width="165" height="174" rx="16" fill="#ad8b49" stroke="#f2d891" stroke-width="8"/><circle cx="115" cy="520" r="48" fill="#725b2b" stroke="#dfc783" stroke-width="7"/><path d="M115 480v80M75 520h80M88 493l55 55M143 493l-55 55" stroke="#e6d397" stroke-width="7"/></g><rect x="70" y="25" width="1060" height="107" rx="14" fill="#fff1b1"/><text x="600" y="76" text-anchor="middle" fill="#7c6024" font-family="sans-serif" font-size="40" font-weight="bold">黃金保險庫 · 500 金幣</text><text x="600" y="112" text-anchor="middle" fill="#7c6024" font-family="sans-serif" font-size="22">三座保險庫各自比大小，勝過守衛才能領獎。</text><rect x="156" y="202.5" width="281.6" height="110.70000000000002" rx="12" fill="#e4e8de" stroke="#7c6024" stroke-opacity=".35" stroke-width="3"/><text x="296.8" y="265.85" fill="#687a70" font-size="22" text-anchor="middle">你的點數</text><rect x="452.00000000000006" y="202.5" width="281.6" height="110.70000000000002" rx="12" fill="#e4e8de" stroke="#7c6024" stroke-opacity=".35" stroke-width="3"/><text x="592.8000000000001" y="265.85" fill="#687a70" font-size="22" text-anchor="middle">守衛點數</text><rect x="748" y="202.5" width="281.6" height="110.70000000000002" rx="12" fill="#e4e8de" stroke="#7c6024" stroke-opacity=".35" stroke-width="3"/><text x="888.8" y="265.85" fill="#687a70" font-size="22" text-anchor="middle">金庫獎金</text><rect x="156" y="324" width="281.6" height="110.70000000000002" rx="12" fill="#e4e8de" stroke="#7c6024" stroke-opacity=".35" stroke-width="3"/><text x="296.8" y="387.35" fill="#687a70" font-size="22" text-anchor="middle">你的點數</text><rect x="452.00000000000006" y="324" width="281.6" height="110.70000000000002" rx="12" fill="#e4e8de" stroke="#7c6024" stroke-opacity=".35" stroke-width="3"/><text x="592.8000000000001" y="387.35" fill="#687a70" font-size="22" text-anchor="middle">守衛點數</text><rect x="748" y="324" width="281.6" height="110.70000000000002" rx="12" fill="#e4e8de" stroke="#7c6024" stroke-opacity=".35" stroke-width="3"/><text x="888.8" y="387.35" fill="#687a70" font-size="22" text-anchor="middle">金庫獎金</text><rect x="156" y="445.5" width="281.6" height="110.70000000000002" rx="12" fill="#e4e8de" stroke="#7c6024" stroke-opacity=".35" stroke-width="3"/><text x="296.8" y="508.85" fill="#687a70" font-size="22" text-anchor="middle">你的點數</text><rect x="452.00000000000006" y="445.5" width="281.6" height="110.70000000000002" rx="12" fill="#e4e8de" stroke="#7c6024" stroke-opacity=".35" stroke-width="3"/><text x="592.8000000000001" y="508.85" fill="#687a70" font-size="22" text-anchor="middle">守衛點數</text><rect x="748" y="445.5" width="281.6" height="110.70000000000002" rx="12" fill="#e4e8de" stroke="#7c6024" stroke-opacity=".35" stroke-width="3"/><text x="888.8" y="508.85" fill="#687a70" font-size="22" text-anchor="middle">金庫獎金</text><text x="600" y="632" text-anchor="middle" fill="#7c6024" font-family="sans-serif" font-size="24" font-weight="bold">最高 15,000 金幣 · 黃金保險庫</text><text x="90" y="655" fill="#7c6024" font-size="12">CxQ / VAULT500 / SCRATCH COLLECTION</text></svg>